# xmcd
#
# Track frame offsets: 
#        150
#        16728
#        37007
#        54330
#        75951
#        101927
#        123354
#        144848
#        153654
#        169482
#        192018
#
# Disc length: 2796 seconds
#
# Revision: 1
# Processed by: cddbd v1.5.2PL0 Copyright (c) Steve Scherf et al.
# Submitted via: ExactAudioCopy v1.0b4
#
DISCID=860aea0b
DTITLE=Scott Holt - Messing With the Kid
DYEAR=1998
DGENRE=Blues
TTITLE0=Messing With the Kid
TTITLE1=How Do We Sleep
TTITLE2=I Still Love You
TTITLE3=Ain't Gonna Be Your Fool
TTITLE4=Let's Straighten It Out
TTITLE5=Black Cat Bone
TTITLE6=I Fell In Love
TTITLE7=Not Fade Away
TTITLE8=He Stopped Loving Her Today
TTITLE9=Your Memory Won't let Me Be
TTITLE10=Who Knows
EXTD=ID3G:   0
EXTT0=
EXTT1=
EXTT2=
EXTT3=
EXTT4=
EXTT5=
EXTT6=
EXTT7=
EXTT8=
EXTT9=
EXTT10=
PLAYORDER=
